<svg width="76" height="44" viewBox="0 0 76 44" fill="none" xmlns="http://www.w3.org/2000/svg">
<rect width="74" height="40" transform="translate(0 3.87286) rotate(-3)" fill="#F3DE6D"/>
<path d="M13.147 30.2209L12.3902 15.7807L17.3534 15.5206C19.1842 15.4247 20.5694 15.6792 21.509 16.2842C22.455 16.8822 22.9599 17.7903 23.0237 19.0086C23.0624 19.7476 22.9062 20.3967 22.555 20.9558C22.2038 21.515 21.5586 22.0061 20.6194 22.4292C21.4081 22.5747 22.0218 22.8196 22.4604 23.1638C22.9053 23.501 23.2197 23.8951 23.4036 24.3461C23.5941 24.7967 23.7023 25.2684 23.7281 25.761C23.7972 27.0792 23.3891 28.082 22.5038 28.7692C21.6252 29.4561 20.2273 29.8499 18.3099 29.9503L13.147 30.2209ZM15.1393 21.8051L18.0852 21.6507C18.5313 21.6273 18.9572 21.5383 19.363 21.3835C19.7754 21.2283 20.107 20.994 20.3576 20.6805C20.6078 20.3603 20.7197 19.9472 20.6932 19.4412C20.6555 18.7222 20.3509 18.1974 19.7795 17.8669C19.2148 17.536 18.503 17.393 17.6441 17.438L14.9179 17.5809L15.1393 21.8051ZM15.4721 28.1564L18.2383 28.0114C19.2569 27.958 20.0229 27.7343 20.5363 27.3402C21.0494 26.9395 21.2876 26.3896 21.251 25.6906C21.2112 24.9316 20.899 24.3872 20.3142 24.0574C19.7291 23.7209 19.0205 23.5744 18.1883 23.618L15.2424 23.7724L15.4721 28.1564ZM29.2974 29.5247C28.4053 29.5715 27.7388 29.4662 27.2981 29.2089C26.8637 28.9446 26.5713 28.5894 26.4211 28.1434C26.2776 27.6969 26.1931 27.2307 26.1676 26.7447L25.5359 14.6912L27.9126 14.5667L28.5297 26.3405C28.553 26.7866 28.6611 27.1281 28.8537 27.365C29.053 27.6015 29.3601 27.729 29.775 27.7473L30.2953 27.74L30.3754 29.2679C30.1988 29.3373 30.0148 29.3937 29.8235 29.4371C29.6392 29.4868 29.4638 29.516 29.2974 29.5247ZM35.394 29.2553C34.402 29.3073 33.5658 29.084 32.8855 28.5856C32.2048 28.0806 31.8388 27.3387 31.7875 26.3601C31.7278 25.2216 32.0923 24.3413 32.8808 23.7192C33.676 23.0967 34.975 22.7249 36.7777 22.6037L38.3135 22.4832L38.2769 21.7842C38.2483 21.2382 38.0629 20.8207 37.7206 20.5316C37.3783 20.2424 36.871 20.1154 36.1986 20.1507C35.6929 20.1839 35.2399 20.3278 34.8393 20.5824C34.4387 20.8371 34.1858 21.2342 34.0806 21.7738L32.0134 21.8821C32.0112 20.8208 32.3923 20.003 33.1566 19.4289C33.9273 18.8478 34.9484 18.5239 36.22 18.4572C37.6913 18.3801 38.775 18.6137 39.4711 19.1581C40.1735 19.6954 40.5519 20.4833 40.6064 21.5219L40.9858 28.7619L38.9386 28.8692L38.6515 27.0217C38.3129 27.8205 37.8685 28.3846 37.3183 28.7138C36.7677 29.0364 36.1263 29.2169 35.394 29.2553ZM36.0965 27.5662C36.496 27.5453 36.8806 27.4316 37.2503 27.2253C37.6196 27.0124 37.9196 26.7497 38.1503 26.4372C38.3809 26.1247 38.4873 25.7986 38.4695 25.4591L38.3842 23.8313L37.117 23.9178C36.179 23.9803 35.4312 24.1697 34.8736 24.486C34.3161 24.8022 34.0553 25.3032 34.0912 25.989C34.1188 26.5149 34.3235 26.9181 34.7054 27.1985C35.0869 27.4722 35.5506 27.5948 36.0965 27.5662ZM47.5611 17.8629C48.3667 17.8207 49.0843 17.9466 49.7139 18.2407C50.3431 18.5282 50.8556 18.9453 51.2514 19.492C51.6536 20.0317 51.9101 20.6591 52.021 21.3743L49.9439 21.4831C49.8462 21.0209 49.6044 20.6097 49.2183 20.2494C48.8386 19.8821 48.3225 19.7156 47.67 19.7498C46.8978 19.7902 46.2838 20.1128 45.8281 20.7175C45.3788 21.3152 45.185 22.2032 45.2468 23.3816C45.304 24.4734 45.5792 25.3302 46.0724 25.9519C46.5656 26.5736 47.2383 26.8621 48.0905 26.8174C48.5166 26.7951 48.8745 26.6829 49.1643 26.4808C49.4605 26.2717 49.6878 26.0228 49.8462 25.7341C50.011 25.4384 50.1125 25.146 50.1507 24.8569L52.1679 24.7512C52.1384 25.4604 51.9515 26.0977 51.6072 26.6632C51.2693 27.2216 50.8023 27.6734 50.2062 28.0184C49.6098 28.3567 48.9155 28.5466 48.1232 28.5882C47.1778 28.6377 46.3249 28.4755 45.5642 28.1014C44.8099 27.7204 44.2023 27.1447 43.7414 26.3745C43.2801 25.5975 43.0199 24.6465 42.961 23.5214C42.9048 22.4495 43.052 21.5005 43.4026 20.6744C43.7528 19.8416 44.2789 19.1798 44.9808 18.6891C45.6891 18.1913 46.5492 17.9159 47.5611 17.8629ZM64.1715 27.5468L61.7049 27.6761L58.4583 23.0497L56.8727 24.8952L57.0313 27.921L54.6146 28.0477L53.8369 13.2081L56.2536 13.0814L56.7356 22.2788L60.7743 17.3707L63.4406 17.2309L59.9172 21.4611L64.1715 27.5468Z" fill="#191C1F"/>
</svg>
